<svg xmlns="http://www.w3.org/2000/svg" xmlns:xlink="http://www.w3.org/1999/xlink" width="1600" zoomAndPan="magnify" viewBox="0 0 1200 599.999999" height="800" preserveAspectRatio="xMidYMid meet" version="1.0"><defs><filter x="0%" y="0%" width="100%" height="100%" id="4def26b696"><feColorMatrix values="0 0 0 0 1 0 0 0 0 1 0 0 0 0 1 0 0 0 1 0" color-interpolation-filters="sRGB"/></filter><g/><clipPath id="4f65fd82b6"><path d="M 136.011719 380.289062 L 1092.851562 380.289062 L 1092.851562 500.777344 L 136.011719 500.777344 Z M 136.011719 380.289062 " clip-rule="nonzero"/></clipPath><clipPath id="84f8fcfe6f"><path d="M 1032.570312 380.289062 L 196.257812 380.289062 C 163.039062 380.289062 136.011719 407.3125 136.011719 440.53125 C 136.011719 473.75 163.039062 500.777344 196.257812 500.777344 L 1032.570312 500.777344 C 1065.789062 500.777344 1092.8125 473.75 1092.8125 440.53125 C 1092.8125 407.3125 1065.789062 380.289062 1032.570312 380.289062 Z M 1032.570312 499.199219 L 196.257812 499.199219 C 163.90625 499.199219 137.589844 472.882812 137.589844 440.53125 C 137.589844 408.179688 163.90625 381.867188 196.257812 381.867188 L 1032.570312 381.867188 C 1064.921875 381.867188 1091.234375 408.179688 1091.234375 440.53125 C 1091.234375 472.882812 1064.921875 499.199219 1032.570312 499.199219 Z M 1032.570312 499.199219 " clip-rule="nonzero"/></clipPath><clipPath id="39d3e51c29"><path d="M 0.0117188 0.289062 L 956.851562 0.289062 L 956.851562 120.777344 L 0.0117188 120.777344 Z M 0.0117188 0.289062 " clip-rule="nonzero"/></clipPath><clipPath id="5f384d17cb"><path d="M 896.570312 0.289062 L 60.257812 0.289062 C 27.039062 0.289062 0.0117188 27.3125 0.0117188 60.53125 C 0.0117188 93.75 27.039062 120.777344 60.257812 120.777344 L 896.570312 120.777344 C 929.789062 120.777344 956.8125 93.75 956.8125 60.53125 C 956.8125 27.3125 929.789062 0.289062 896.570312 0.289062 Z M 896.570312 119.199219 L 60.257812 119.199219 C 27.90625 119.199219 1.589844 92.882812 1.589844 60.53125 C 1.589844 28.179688 27.90625 1.867188 60.257812 1.867188 L 896.570312 1.867188 C 928.921875 1.867188 955.234375 28.179688 955.234375 60.53125 C 955.234375 92.882812 928.921875 119.199219 896.570312 119.199219 Z M 896.570312 119.199219 " clip-rule="nonzero"/></clipPath><clipPath id="f1d58e9091"><rect x="0" width="957" y="0" height="121"/></clipPath><clipPath id="7576347860"><rect x="0" width="840" y="0" height="67"/></clipPath><clipPath id="37f5e86797"><path d="M 107.1875 115 L 332 115 L 332 338.667969 L 107.1875 338.667969 Z M 107.1875 115 " clip-rule="nonzero"/></clipPath><mask id="f91518f998"><g filter="url(#4def26b696)"><rect x="-120" width="1440" fill="#000000" y="-60" height="719.999999" fill-opacity="0.7"/></g></mask><clipPath id="22ee391777"><path d="M 0.1875 0.441406 L 224 0.441406 L 224 223.667969 L 0.1875 223.667969 Z M 0.1875 0.441406 " clip-rule="nonzero"/></clipPath><clipPath id="a9532cb2b6"><rect x="0" width="225" y="0" height="224"/></clipPath><clipPath id="cf6d61af9e"><path d="M 169 114 L 393.6875 114 L 393.6875 338.667969 L 169 338.667969 Z M 169 114 " clip-rule="nonzero"/></clipPath><mask id="149973ac1c"><g filter="url(#4def26b696)"><rect x="-120" width="1440" fill="#000000" y="-60" height="719.999999" fill-opacity="0.7"/></g></mask><clipPath id="ab3c18243d"><path d="M 1 1 L 224.601562 1 L 224.601562 224.667969 L 1 224.667969 Z M 1 1 " clip-rule="nonzero"/></clipPath><clipPath id="271f2242a1"><rect x="0" width="225" y="0" height="225"/></clipPath><clipPath id="7e84577f17"><rect x="0" width="648" y="0" height="250"/></clipPath></defs><g clip-path="url(#4f65fd82b6)"><g clip-path="url(#84f8fcfe6f)"><g transform="matrix(1, 0, 0, 1, 136, 380)"><g clip-path="url(#f1d58e9091)"><g clip-path="url(#39d3e51c29)"><g clip-path="url(#5f384d17cb)"><path fill="#ffffff" d="M 0.0117188 0.289062 L 956.851562 0.289062 L 956.851562 120.777344 L 0.0117188 120.777344 Z M 0.0117188 0.289062 " fill-opacity="1" fill-rule="nonzero"/></g></g></g></g></g></g><g transform="matrix(1, 0, 0, 1, 197, 407)"><g clip-path="url(#7576347860)"><g fill="#ffffff" fill-opacity="1"><g transform="translate(3.465516, 53.431715)"><g><path d="M 20.359375 -19.5625 L 37.328125 -19.5625 L 37.328125 0 L 32.875 0 L 31.546875 -4.875 C 30.421875 -3.351562 28.832031 -2.046875 26.78125 -0.953125 C 24.726562 0.140625 22.46875 0.6875 20 0.6875 C 16.738281 0.6875 13.710938 -0.164062 10.921875 -1.875 C 8.128906 -3.59375 5.898438 -5.925781 4.234375 -8.875 C 2.578125 -11.832031 1.75 -15.0625 1.75 -18.5625 C 1.75 -22.0625 2.578125 -25.285156 4.234375 -28.234375 C 5.898438 -31.191406 8.128906 -33.523438 10.921875 -35.234375 C 13.710938 -36.953125 16.738281 -37.8125 20 -37.8125 C 22.96875 -37.8125 25.644531 -37.191406 28.03125 -35.953125 C 30.414062 -34.710938 32.359375 -33.101562 33.859375 -31.125 C 35.359375 -29.144531 36.335938 -27.097656 36.796875 -24.984375 L 28.90625 -24.984375 C 28.375 -26.390625 27.328125 -27.660156 25.765625 -28.796875 C 24.210938 -29.929688 22.289062 -30.5 20 -30.5 C 18.082031 -30.5 16.3125 -29.972656 14.6875 -28.921875 C 13.0625 -27.878906 11.757812 -26.445312 10.78125 -24.625 C 9.8125 -22.8125 9.328125 -20.789062 9.328125 -18.5625 C 9.328125 -16.332031 9.8125 -14.304688 10.78125 -12.484375 C 11.757812 -10.660156 13.0625 -9.226562 14.6875 -8.1875 C 16.3125 -7.144531 18.082031 -6.625 20 -6.625 C 22.570312 -6.625 24.644531 -7.296875 26.21875 -8.640625 C 27.789062 -9.984375 28.804688 -11.46875 29.265625 -13.09375 L 20.359375 -13.09375 Z M 20.359375 -19.5625 "/></g></g></g><g fill="#ffffff" fill-opacity="1"><g transform="translate(46.7921, 53.431715)"><g><path d="M 11.296875 -15.4375 L 11.296875 -7.21875 L 29.640625 -7.21875 L 29.640625 0 L 3.71875 0 L 3.71875 -37.125 L 29.109375 -37.125 L 29.109375 -29.90625 L 11.296875 -29.90625 L 11.296875 -22.4375 L 27.09375 -22.4375 L 27.09375 -15.4375 Z M 11.296875 -15.4375 "/></g></g></g><g fill="#ffffff" fill-opacity="1"><g transform="translate(81.050358, 53.431715)"><g><path d="M 15.90625 0.6875 C 13.082031 0.6875 10.617188 0.148438 8.515625 -0.921875 C 6.410156 -2.003906 4.765625 -3.484375 3.578125 -5.359375 C 2.390625 -7.234375 1.742188 -9.351562 1.640625 -11.71875 L 9.234375 -11.71875 C 9.441406 -10.0625 10.109375 -8.707031 11.234375 -7.65625 C 12.367188 -6.613281 13.925781 -6.09375 15.90625 -6.09375 C 17.78125 -6.09375 19.203125 -6.460938 20.171875 -7.203125 C 21.148438 -7.953125 21.640625 -8.875 21.640625 -9.96875 C 21.640625 -10.882812 21.320312 -11.660156 20.6875 -12.296875 C 20.050781 -12.929688 19.253906 -13.453125 18.296875 -13.859375 C 17.335938 -14.273438 16.007812 -14.765625 14.3125 -15.328125 C 11.84375 -16.140625 9.820312 -16.941406 8.25 -17.734375 C 6.675781 -18.535156 5.320312 -19.6875 4.1875 -21.1875 C 3.0625 -22.6875 2.5 -24.640625 2.5 -27.046875 C 2.5 -29.097656 3.007812 -30.9375 4.03125 -32.5625 C 5.050781 -34.1875 6.539062 -35.46875 8.5 -36.40625 C 10.46875 -37.34375 12.78125 -37.8125 15.4375 -37.8125 C 17.976562 -37.8125 20.238281 -37.28125 22.21875 -36.21875 C 24.195312 -35.15625 25.75 -33.703125 26.875 -31.859375 C 28.007812 -30.023438 28.632812 -27.976562 28.75 -25.71875 L 21.15625 -25.71875 C 21.050781 -27.269531 20.484375 -28.539062 19.453125 -29.53125 C 18.429688 -30.519531 17.09375 -31.015625 15.4375 -31.015625 C 13.738281 -31.015625 12.421875 -30.632812 11.484375 -29.875 C 10.546875 -29.125 10.078125 -28.144531 10.078125 -26.9375 C 10.078125 -26.019531 10.394531 -25.242188 11.03125 -24.609375 C 11.664062 -23.972656 12.453125 -23.457031 13.390625 -23.0625 C 14.328125 -22.675781 15.660156 -22.203125 17.390625 -21.640625 C 19.828125 -20.859375 21.84375 -20.085938 23.4375 -19.328125 C 25.03125 -18.566406 26.390625 -17.453125 27.515625 -15.984375 C 28.648438 -14.515625 29.21875 -12.597656 29.21875 -10.234375 C 29.21875 -8.148438 28.695312 -6.285156 27.65625 -4.640625 C 26.613281 -2.992188 25.082031 -1.691406 23.0625 -0.734375 C 21.050781 0.210938 18.664062 0.6875 15.90625 0.6875 Z M 15.90625 0.6875 "/></g></g></g><g fill="#ffffff" fill-opacity="1"><g transform="translate(114.831294, 53.431715)"><g><path d="M 19.09375 0 L 11.5 0 L 11.5 -29.796875 L 0.75 -29.796875 L 0.75 -37.125 L 29.859375 -37.125 L 29.859375 -29.796875 L 19.09375 -29.796875 Z M 19.09375 0 "/></g></g></g><g fill="#ffffff" fill-opacity="1"><g transform="translate(148.081955, 53.431715)"><g><path d="M 11.296875 0 L 3.71875 0 L 3.71875 -37.125 L 11.296875 -37.125 Z M 11.296875 0 "/></g></g></g><g fill="#ffffff" fill-opacity="1"><g transform="translate(165.741384, 53.431715)"><g><path d="M 20 0.6875 C 16.738281 0.6875 13.710938 -0.164062 10.921875 -1.875 C 8.128906 -3.59375 5.898438 -5.925781 4.234375 -8.875 C 2.578125 -11.832031 1.75 -15.0625 1.75 -18.5625 C 1.75 -22.0625 2.578125 -25.285156 4.234375 -28.234375 C 5.898438 -31.191406 8.128906 -33.523438 10.921875 -35.234375 C 13.710938 -36.953125 16.738281 -37.8125 20 -37.8125 C 23.25 -37.8125 26.269531 -36.953125 29.0625 -35.234375 C 31.851562 -33.523438 34.078125 -31.191406 35.734375 -28.234375 C 37.398438 -25.285156 38.234375 -22.0625 38.234375 -18.5625 C 38.234375 -15.0625 37.398438 -11.832031 35.734375 -8.875 C 34.078125 -5.925781 31.851562 -3.59375 29.0625 -1.875 C 26.269531 -0.164062 23.25 0.6875 20 0.6875 Z M 20 -6.625 C 21.90625 -6.625 23.671875 -7.144531 25.296875 -8.1875 C 26.921875 -9.226562 28.21875 -10.660156 29.1875 -12.484375 C 30.164062 -14.304688 30.65625 -16.332031 30.65625 -18.5625 C 30.65625 -20.789062 30.164062 -22.8125 29.1875 -24.625 C 28.21875 -26.445312 26.921875 -27.878906 25.296875 -28.921875 C 23.671875 -29.972656 21.90625 -30.5 20 -30.5 C 18.082031 -30.5 16.3125 -29.972656 14.6875 -28.921875 C 13.0625 -27.878906 11.757812 -26.445312 10.78125 -24.625 C 9.8125 -22.8125 9.328125 -20.789062 9.328125 -18.5625 C 9.328125 -16.332031 9.8125 -14.304688 10.78125 -12.484375 C 11.757812 -10.660156 13.0625 -9.226562 14.6875 -8.1875 C 16.3125 -7.144531 18.082031 -6.625 20 -6.625 Z M 22 -40.03125 L 16.328125 -40.03125 L 20.671875 -48.421875 L 28.203125 -48.421875 Z M 22 -40.03125 "/></g></g></g><g fill="#ffffff" fill-opacity="1"><g transform="translate(208.378586, 53.431715)"><g><path d="M 27.15625 -12.828125 L 27.15625 -37.125 L 34.46875 -37.125 L 34.46875 0 L 27.515625 0 L 11.03125 -24.28125 L 11.03125 0 L 3.71875 0 L 3.71875 -37.125 L 10.65625 -37.125 Z M 27.15625 -12.828125 "/></g></g></g><g fill="#ffffff" fill-opacity="1"><g transform="translate(249.212703, 53.431715)"><g/></g></g><g fill="#ffffff" fill-opacity="1"><g transform="translate(265.228155, 53.431715)"><g><path d="M 15.75 -21.90625 L 23.328125 -37.125 L 31.5 -37.125 L 19.40625 -13.84375 L 19.40625 0 L 11.828125 0 L 11.828125 -13.84375 L -0.265625 -37.125 L 8.171875 -37.125 Z M 15.75 -21.90625 "/></g></g></g><g fill="#ffffff" fill-opacity="1"><g transform="translate(299.115196, 53.431715)"><g/></g></g><g fill="#ffffff" fill-opacity="1"><g transform="translate(315.130648, 53.431715)"><g><path d="M 34.734375 0 L 26.78125 0 L 24.078125 -7.640625 L 10.078125 -7.640625 L 7.375 0 L -0.3125 0 L 13.515625 -37.125 L 20.953125 -37.125 Z M 21.578125 -14.640625 L 17.078125 -27.6875 L 12.5625 -14.640625 Z M 21.578125 -14.640625 "/></g></g></g><g fill="#ffffff" fill-opacity="1"><g transform="translate(352.199538, 53.431715)"><g><path d="M 19.09375 0 L 11.5 0 L 11.5 -29.796875 L 0.75 -29.796875 L 0.75 -37.125 L 29.859375 -37.125 L 29.859375 -29.796875 L 19.09375 -29.796875 Z M 19.09375 0 "/></g></g></g><g fill="#ffffff" fill-opacity="1"><g transform="translate(385.450199, 53.431715)"><g><path d="M 11.296875 -15.4375 L 11.296875 -7.21875 L 29.640625 -7.21875 L 29.640625 0 L 3.71875 0 L 3.71875 -37.125 L 29.109375 -37.125 L 29.109375 -29.90625 L 11.296875 -29.90625 L 11.296875 -22.4375 L 27.09375 -22.4375 L 27.09375 -15.4375 Z M 11.296875 -15.4375 "/></g></g></g><g fill="#ffffff" fill-opacity="1"><g transform="translate(419.708458, 53.431715)"><g><path d="M 27.15625 -12.828125 L 27.15625 -37.125 L 34.46875 -37.125 L 34.46875 0 L 27.515625 0 L 11.03125 -24.28125 L 11.03125 0 L 3.71875 0 L 3.71875 -37.125 L 10.65625 -37.125 Z M 27.15625 -12.828125 "/></g></g></g><g fill="#ffffff" fill-opacity="1"><g transform="translate(460.542575, 53.431715)"><g><path d="M 20 0.6875 C 16.738281 0.6875 13.710938 -0.164062 10.921875 -1.875 C 8.128906 -3.59375 5.898438 -5.925781 4.234375 -8.875 C 2.578125 -11.832031 1.75 -15.0625 1.75 -18.5625 C 1.75 -22.0625 2.578125 -25.285156 4.234375 -28.234375 C 5.898438 -31.191406 8.128906 -33.523438 10.921875 -35.234375 C 13.710938 -36.953125 16.738281 -37.8125 20 -37.8125 C 22.96875 -37.8125 25.617188 -37.144531 27.953125 -35.8125 C 30.285156 -34.488281 32.203125 -32.773438 33.703125 -30.671875 C 35.203125 -28.566406 36.234375 -26.316406 36.796875 -23.921875 L 28.90625 -23.921875 C 28.40625 -25.679688 27.378906 -27.21875 25.828125 -28.53125 C 24.273438 -29.84375 22.332031 -30.5 20 -30.5 C 18.082031 -30.5 16.3125 -29.972656 14.6875 -28.921875 C 13.0625 -27.878906 11.757812 -26.445312 10.78125 -24.625 C 9.8125 -22.8125 9.328125 -20.789062 9.328125 -18.5625 C 9.328125 -16.332031 9.8125 -14.304688 10.78125 -12.484375 C 11.757812 -10.660156 13.0625 -9.226562 14.6875 -8.1875 C 16.3125 -7.144531 18.082031 -6.625 20 -6.625 C 22.332031 -6.625 24.285156 -7.269531 25.859375 -8.5625 C 27.429688 -9.851562 28.535156 -11.382812 29.171875 -13.15625 L 37.0625 -13.15625 C 36.5 -10.78125 35.46875 -8.539062 33.96875 -6.4375 C 32.46875 -4.332031 30.519531 -2.617188 28.125 -1.296875 C 25.738281 0.0234375 23.03125 0.6875 20 0.6875 Z M 20 0.6875 "/></g></g></g><g fill="#ffffff" fill-opacity="1"><g transform="translate(501.747909, 53.431715)"><g><path d="M 11.296875 0 L 3.71875 0 L 3.71875 -37.125 L 11.296875 -37.125 Z M 11.296875 0 "/></g></g></g><g fill="#ffffff" fill-opacity="1"><g transform="translate(519.407338, 53.431715)"><g><path d="M 20 0.6875 C 16.738281 0.6875 13.710938 -0.164062 10.921875 -1.875 C 8.128906 -3.59375 5.898438 -5.925781 4.234375 -8.875 C 2.578125 -11.832031 1.75 -15.0625 1.75 -18.5625 C 1.75 -22.0625 2.578125 -25.285156 4.234375 -28.234375 C 5.898438 -31.191406 8.128906 -33.523438 10.921875 -35.234375 C 13.710938 -36.953125 16.738281 -37.8125 20 -37.8125 C 23.25 -37.8125 26.269531 -36.953125 29.0625 -35.234375 C 31.851562 -33.523438 34.078125 -31.191406 35.734375 -28.234375 C 37.398438 -25.285156 38.234375 -22.0625 38.234375 -18.5625 C 38.234375 -15.0625 37.398438 -11.832031 35.734375 -8.875 C 34.078125 -5.925781 31.851562 -3.59375 29.0625 -1.875 C 26.269531 -0.164062 23.25 0.6875 20 0.6875 Z M 20 -6.625 C 21.90625 -6.625 23.671875 -7.144531 25.296875 -8.1875 C 26.921875 -9.226562 28.21875 -10.660156 29.1875 -12.484375 C 30.164062 -14.304688 30.65625 -16.332031 30.65625 -18.5625 C 30.65625 -20.789062 30.164062 -22.8125 29.1875 -24.625 C 28.21875 -26.445312 26.921875 -27.878906 25.296875 -28.921875 C 23.671875 -29.972656 21.90625 -30.5 20 -30.5 C 18.082031 -30.5 16.3125 -29.972656 14.6875 -28.921875 C 13.0625 -27.878906 11.757812 -26.445312 10.78125 -24.625 C 9.8125 -22.8125 9.328125 -20.789062 9.328125 -18.5625 C 9.328125 -16.332031 9.8125 -14.304688 10.78125 -12.484375 C 11.757812 -10.660156 13.0625 -9.226562 14.6875 -8.1875 C 16.3125 -7.144531 18.082031 -6.625 20 -6.625 Z M 22 -40.03125 L 16.328125 -40.03125 L 20.671875 -48.421875 L 28.203125 -48.421875 Z M 22 -40.03125 "/></g></g></g><g fill="#ffffff" fill-opacity="1"><g transform="translate(562.04454, 53.431715)"><g><path d="M 27.15625 -12.828125 L 27.15625 -37.125 L 34.46875 -37.125 L 34.46875 0 L 27.515625 0 L 11.03125 -24.28125 L 11.03125 0 L 3.71875 0 L 3.71875 -37.125 L 10.65625 -37.125 Z M 27.15625 -12.828125 "/></g></g></g><g fill="#ffffff" fill-opacity="1"><g transform="translate(602.878657, 53.431715)"><g/></g></g><g fill="#ffffff" fill-opacity="1"><g transform="translate(618.894109, 53.431715)"><g><path d="M 23.0625 -10.921875 L 35.21875 -37.125 L 41.953125 -37.125 L 41.953125 0 L 34.625 0 L 34.625 -21.421875 L 24.65625 0 L 20.890625 0 L 11.03125 -21.21875 L 11.03125 0 L 3.71875 0 L 3.71875 -37.125 L 10.921875 -37.125 Z M 23.0625 -10.921875 "/></g></g></g><g fill="#ffffff" fill-opacity="1"><g transform="translate(667.205678, 53.431715)"><g><path d="M 11.296875 -15.4375 L 11.296875 -7.21875 L 29.640625 -7.21875 L 29.640625 0 L 3.71875 0 L 3.71875 -37.125 L 29.109375 -37.125 L 29.109375 -29.90625 L 11.296875 -29.90625 L 11.296875 -22.4375 L 27.09375 -22.4375 L 27.09375 -15.4375 Z M 18.453125 -40.03125 L 12.78125 -40.03125 L 17.125 -48.421875 L 24.65625 -48.421875 Z M 18.453125 -40.03125 "/></g></g></g><g fill="#ffffff" fill-opacity="1"><g transform="translate(701.463936, 53.431715)"><g><path d="M 3.71875 0 L 3.71875 -37.125 L 16.015625 -37.125 C 19.335938 -37.125 22.40625 -36.289062 25.21875 -34.625 C 28.03125 -32.96875 30.253906 -30.710938 31.890625 -27.859375 C 33.535156 -25.015625 34.359375 -21.914062 34.359375 -18.5625 C 34.359375 -15.164062 33.523438 -12.050781 31.859375 -9.21875 C 30.203125 -6.394531 27.96875 -4.148438 25.15625 -2.484375 C 22.351562 -0.828125 19.304688 0 16.015625 0 Z M 16.015625 -7.3125 C 17.921875 -7.3125 19.695312 -7.804688 21.34375 -8.796875 C 22.988281 -9.785156 24.304688 -11.140625 25.296875 -12.859375 C 26.285156 -14.578125 26.78125 -16.476562 26.78125 -18.5625 C 26.78125 -20.644531 26.285156 -22.539062 25.296875 -24.25 C 24.304688 -25.96875 22.988281 -27.320312 21.34375 -28.3125 C 19.695312 -29.300781 17.921875 -29.796875 16.015625 -29.796875 L 11.296875 -29.796875 L 11.296875 -7.3125 Z M 16.015625 -7.3125 "/></g></g></g><g fill="#ffffff" fill-opacity="1"><g transform="translate(740.229857, 53.431715)"><g><path d="M 11.296875 0 L 3.71875 0 L 3.71875 -37.125 L 11.296875 -37.125 Z M 11.296875 0 "/></g></g></g><g fill="#ffffff" fill-opacity="1"><g transform="translate(757.889286, 53.431715)"><g><path d="M 20 0.6875 C 16.738281 0.6875 13.710938 -0.164062 10.921875 -1.875 C 8.128906 -3.59375 5.898438 -5.925781 4.234375 -8.875 C 2.578125 -11.832031 1.75 -15.0625 1.75 -18.5625 C 1.75 -22.0625 2.578125 -25.285156 4.234375 -28.234375 C 5.898438 -31.191406 8.128906 -33.523438 10.921875 -35.234375 C 13.710938 -36.953125 16.738281 -37.8125 20 -37.8125 C 22.96875 -37.8125 25.617188 -37.144531 27.953125 -35.8125 C 30.285156 -34.488281 32.203125 -32.773438 33.703125 -30.671875 C 35.203125 -28.566406 36.234375 -26.316406 36.796875 -23.921875 L 28.90625 -23.921875 C 28.40625 -25.679688 27.378906 -27.21875 25.828125 -28.53125 C 24.273438 -29.84375 22.332031 -30.5 20 -30.5 C 18.082031 -30.5 16.3125 -29.972656 14.6875 -28.921875 C 13.0625 -27.878906 11.757812 -26.445312 10.78125 -24.625 C 9.8125 -22.8125 9.328125 -20.789062 9.328125 -18.5625 C 9.328125 -16.332031 9.8125 -14.304688 10.78125 -12.484375 C 11.757812 -10.660156 13.0625 -9.226562 14.6875 -8.1875 C 16.3125 -7.144531 18.082031 -6.625 20 -6.625 C 22.332031 -6.625 24.285156 -7.269531 25.859375 -8.5625 C 27.429688 -9.851562 28.535156 -11.382812 29.171875 -13.15625 L 37.0625 -13.15625 C 36.5 -10.78125 35.46875 -8.539062 33.96875 -6.4375 C 32.46875 -4.332031 30.519531 -2.617188 28.125 -1.296875 C 25.738281 0.0234375 23.03125 0.6875 20 0.6875 Z M 20 0.6875 "/></g></g></g><g fill="#ffffff" fill-opacity="1"><g transform="translate(799.09462, 53.431715)"><g><path d="M 34.734375 0 L 26.78125 0 L 24.078125 -7.640625 L 10.078125 -7.640625 L 7.375 0 L -0.3125 0 L 13.515625 -37.125 L 20.953125 -37.125 Z M 21.578125 -14.640625 L 17.078125 -27.6875 L 12.5625 -14.640625 Z M 21.578125 -14.640625 "/></g></g></g></g></g><g clip-path="url(#37f5e86797)"><g mask="url(#f91518f998)"><g transform="matrix(1, 0, 0, 1, 107, 115)"><g clip-path="url(#a9532cb2b6)"><g clip-path="url(#22ee391777)"><path fill="#085fce" d="M 223.515625 143.34375 C 223.515625 164.828125 215.148438 185.027344 199.953125 200.21875 C 184.273438 215.898438 163.675781 223.738281 143.078125 223.738281 C 122.480469 223.738281 101.882812 215.898438 86.199219 200.21875 L 23.765625 137.785156 C 8.574219 122.59375 0.207031 102.394531 0.207031 80.90625 C 0.207031 59.421875 8.574219 39.222656 23.765625 24.03125 C 55.128906 -7.332031 106.160156 -7.332031 137.523438 24.03125 L 199.957031 86.464844 C 215.148438 101.65625 223.515625 121.855469 223.515625 143.34375 Z M 223.515625 143.34375 " fill-opacity="1" fill-rule="nonzero"/></g></g></g></g></g><g clip-path="url(#cf6d61af9e)"><g mask="url(#149973ac1c)"><g transform="matrix(1, 0, 0, 1, 169, 114)"><g clip-path="url(#271f2242a1)"><g clip-path="url(#ab3c18243d)"><path fill="#3de2ff" d="M 224.382812 81.90625 C 224.382812 103.394531 216.015625 123.59375 200.824219 138.785156 L 138.390625 201.21875 C 122.710938 216.898438 102.113281 224.738281 81.515625 224.738281 C 60.917969 224.738281 40.316406 216.898438 24.636719 201.21875 C 9.445312 186.027344 1.078125 165.828125 1.078125 144.34375 C 1.078125 122.855469 9.445312 102.65625 24.636719 87.464844 L 87.070312 25.03125 C 118.433594 -6.332031 169.464844 -6.332031 200.824219 25.03125 C 216.015625 40.222656 224.382812 60.421875 224.382812 81.90625 Z M 224.382812 81.90625 " fill-opacity="1" fill-rule="nonzero"/></g></g></g></g></g><g transform="matrix(1, 0, 0, 1, 438, 92)"><g clip-path="url(#7e84577f17)"><g fill="#ffffff" fill-opacity="1"><g transform="translate(0.966544, 196.162548)"><g><path d="M 13.9375 -139.296875 L 57.703125 -139.296875 L 90.546875 -42.78125 L 91.546875 -42.78125 L 124.375 -139.296875 L 168.15625 -139.296875 L 168.15625 0 L 138.3125 0 L 138.3125 -98.5 L 137.3125 -98.5 L 103.484375 0 L 78.609375 0 L 44.78125 -98.5 L 43.78125 -98.5 L 43.78125 0 L 13.9375 0 Z M 13.9375 -139.296875 "/></g></g></g><g fill="#ffffff" fill-opacity="1"><g transform="translate(179.04454, 196.162548)"><g><path d="M 41.984375 0 L -1 -105.46875 L 29.84375 -105.46875 L 55.71875 -36.8125 L 56.515625 -36.8125 L 81.59375 -105.46875 L 112.4375 -105.46875 L 54.71875 39.796875 L 25.875 39.796875 Z M 41.984375 0 "/></g></g></g><g fill="#ffffff" fill-opacity="1"><g transform="translate(286.487958, 196.162548)"><g><path d="M 13.9375 -139.296875 L 67.65625 -139.296875 C 77.34375 -139.296875 86.097656 -137.703125 93.921875 -134.515625 C 101.753906 -131.335938 108.457031 -126.765625 114.03125 -120.796875 C 119.601562 -114.828125 123.878906 -107.53125 126.859375 -98.90625 C 129.847656 -90.28125 131.34375 -80.53125 131.34375 -69.65625 C 131.34375 -58.644531 129.847656 -48.828125 126.859375 -40.203125 C 123.878906 -31.578125 119.601562 -24.28125 114.03125 -18.3125 C 108.457031 -12.34375 101.753906 -7.796875 93.921875 -4.671875 C 86.097656 -1.554688 77.34375 0 67.65625 0 L 13.9375 0 Z M 66.671875 -26.859375 C 71.441406 -26.859375 75.914062 -27.71875 80.09375 -29.4375 C 84.269531 -31.164062 87.953125 -33.820312 91.140625 -37.40625 C 94.328125 -40.988281 96.847656 -45.46875 98.703125 -50.84375 C 100.554688 -56.21875 101.484375 -62.488281 101.484375 -69.65625 C 101.484375 -76.8125 100.554688 -83.078125 98.703125 -88.453125 C 96.847656 -93.828125 94.328125 -98.304688 91.140625 -101.890625 C 87.953125 -105.472656 84.269531 -108.125 80.09375 -109.84375 C 75.914062 -111.570312 71.441406 -112.4375 66.671875 -112.4375 L 43.78125 -112.4375 L 43.78125 -26.859375 Z M 66.671875 -26.859375 "/></g></g></g><g fill="#ffffff" fill-opacity="1"><g transform="translate(421.787246, 196.162548)"><g><path d="M 58.703125 1.984375 C 50.742188 1.984375 43.578125 0.757812 37.203125 -1.6875 C 30.835938 -4.144531 25.398438 -7.691406 20.890625 -12.328125 C 16.378906 -16.972656 12.929688 -22.675781 10.546875 -29.4375 C 8.160156 -36.207031 6.96875 -43.972656 6.96875 -52.734375 C 6.96875 -61.492188 8.160156 -69.253906 10.546875 -76.015625 C 12.929688 -82.785156 16.378906 -88.488281 20.890625 -93.125 C 25.398438 -97.769531 30.835938 -101.316406 37.203125 -103.765625 C 43.578125 -106.222656 50.742188 -107.453125 58.703125 -107.453125 C 66.660156 -107.453125 73.820312 -106.222656 80.1875 -103.765625 C 86.5625 -101.316406 92.003906 -97.769531 96.515625 -93.125 C 101.023438 -88.488281 104.472656 -82.785156 106.859375 -76.015625 C 109.242188 -69.253906 110.4375 -61.492188 110.4375 -52.734375 C 110.4375 -43.972656 109.242188 -36.207031 106.859375 -29.4375 C 104.472656 -22.675781 101.023438 -16.972656 96.515625 -12.328125 C 92.003906 -7.691406 86.5625 -4.144531 80.1875 -1.6875 C 73.820312 0.757812 66.660156 1.984375 58.703125 1.984375 Z M 58.703125 -22.890625 C 61.890625 -22.890625 64.941406 -23.453125 67.859375 -24.578125 C 70.773438 -25.703125 73.328125 -27.488281 75.515625 -29.9375 C 77.703125 -32.394531 79.425781 -35.515625 80.6875 -39.296875 C 81.945312 -43.078125 82.578125 -47.554688 82.578125 -52.734375 C 82.578125 -57.910156 81.945312 -62.390625 80.6875 -66.171875 C 79.425781 -69.953125 77.703125 -73.066406 75.515625 -75.515625 C 73.328125 -77.972656 70.773438 -79.765625 67.859375 -80.890625 C 64.941406 -82.015625 61.890625 -82.578125 58.703125 -82.578125 C 55.515625 -82.578125 52.460938 -82.015625 49.546875 -80.890625 C 46.628906 -79.765625 44.078125 -77.972656 41.890625 -75.515625 C 39.703125 -73.066406 37.976562 -69.953125 36.71875 -66.171875 C 35.457031 -62.390625 34.828125 -57.910156 34.828125 -52.734375 C 34.828125 -47.554688 35.457031 -43.078125 36.71875 -39.296875 C 37.976562 -35.515625 39.703125 -32.394531 41.890625 -29.9375 C 44.078125 -27.488281 46.628906 -25.703125 49.546875 -24.578125 C 52.460938 -23.453125 55.515625 -22.890625 58.703125 -22.890625 Z M 58.703125 -22.890625 "/></g></g></g><g fill="#ffffff" fill-opacity="1"><g transform="translate(535.19978, 196.162548)"><g><path d="M 58.703125 1.984375 C 50.742188 1.984375 43.578125 0.757812 37.203125 -1.6875 C 30.835938 -4.144531 25.398438 -7.691406 20.890625 -12.328125 C 16.378906 -16.972656 12.929688 -22.675781 10.546875 -29.4375 C 8.160156 -36.207031 6.96875 -43.972656 6.96875 -52.734375 C 6.96875 -61.492188 8.160156 -69.253906 10.546875 -76.015625 C 12.929688 -82.785156 16.378906 -88.488281 20.890625 -93.125 C 25.398438 -97.769531 30.835938 -101.316406 37.203125 -103.765625 C 43.578125 -106.222656 50.742188 -107.453125 58.703125 -107.453125 C 66.128906 -107.453125 72.628906 -106.425781 78.203125 -104.375 C 83.773438 -102.320312 88.519531 -99.535156 92.4375 -96.015625 C 96.351562 -92.503906 99.535156 -88.457031 101.984375 -83.875 C 104.441406 -79.300781 106.265625 -74.5625 107.453125 -69.65625 L 79.59375 -69.65625 C 77.601562 -73.632812 75.015625 -76.78125 71.828125 -79.09375 C 68.648438 -81.414062 64.273438 -82.578125 58.703125 -82.578125 C 51.671875 -82.578125 45.929688 -80.085938 41.484375 -75.109375 C 37.046875 -70.140625 34.828125 -62.679688 34.828125 -52.734375 C 34.828125 -42.785156 37.046875 -35.320312 41.484375 -30.34375 C 45.929688 -25.375 51.671875 -22.890625 58.703125 -22.890625 C 64.273438 -22.890625 68.648438 -24.046875 71.828125 -26.359375 C 75.015625 -28.679688 77.601562 -31.832031 79.59375 -35.8125 L 107.453125 -35.8125 C 106.265625 -30.78125 104.441406 -26.003906 101.984375 -21.484375 C 99.535156 -16.972656 96.351562 -12.957031 92.4375 -9.4375 C 88.519531 -5.925781 83.773438 -3.144531 78.203125 -1.09375 C 72.628906 0.957031 66.128906 1.984375 58.703125 1.984375 Z M 58.703125 1.984375 "/></g></g></g></g></g></svg>