<svg xmlns="http://www.w3.org/2000/svg" xmlns:xlink="http://www.w3.org/1999/xlink" width="500" zoomAndPan="magnify" viewBox="0 0 375 374.999991" height="500" preserveAspectRatio="xMidYMid meet" version="1.0"><defs><filter x="0%" y="0%" width="100%" height="100%" id="995ccda326"><feColorMatrix values="0 0 0 0 1 0 0 0 0 1 0 0 0 0 1 0 0 0 1 0" color-interpolation-filters="sRGB"/></filter><clipPath id="0bc47ac762"><path d="M 39.539062 75 L 273 75 L 273 307.984375 L 39.539062 307.984375 Z M 39.539062 75 " clip-rule="nonzero"/></clipPath><mask id="b676941c12"><g filter="url(#995ccda326)"><rect x="-37.5" width="450" fill="#000000" y="-37.499999" height="449.999989" fill-opacity="0.7"/></g></mask><clipPath id="a439a6d764"><path d="M 0.539062 0.359375 L 233.640625 0.359375 L 233.640625 232.984375 L 0.539062 232.984375 Z M 0.539062 0.359375 " clip-rule="nonzero"/></clipPath><clipPath id="40a1ef33b6"><rect x="0" width="234" y="0" height="233"/></clipPath><clipPath id="c14c3bb45d"><path d="M 104 74 L 337.289062 74 L 337.289062 307.984375 L 104 307.984375 Z M 104 74 " clip-rule="nonzero"/></clipPath><mask id="6988646aa7"><g filter="url(#995ccda326)"><rect x="-37.5" width="450" fill="#000000" y="-37.499999" height="449.999989" fill-opacity="0.7"/></g></mask><clipPath id="09af6a6790"><path d="M 1 1 L 233.289062 1 L 233.289062 233.984375 L 1 233.984375 Z M 1 1 " clip-rule="nonzero"/></clipPath><clipPath id="c31db3c38b"><rect x="0" width="234" y="0" height="234"/></clipPath></defs><g clip-path="url(#0bc47ac762)"><g mask="url(#b676941c12)"><g transform="matrix(1, 0, 0, 1, 39, 75)"><g clip-path="url(#40a1ef33b6)"><g clip-path="url(#a439a6d764)"><path fill="#085fce" d="M 233.019531 149.082031 C 233.019531 171.445312 224.308594 192.472656 208.496094 208.289062 C 192.171875 224.613281 170.730469 232.773438 149.289062 232.773438 C 127.847656 232.773438 106.402344 224.613281 90.078125 208.289062 L 25.085938 143.296875 C 9.273438 127.480469 0.5625 106.453125 0.5625 84.089844 C 0.5625 61.722656 9.273438 40.695312 25.085938 24.882812 C 57.734375 -7.765625 110.855469 -7.765625 143.503906 24.882812 L 208.496094 89.875 C 224.3125 105.6875 233.019531 126.714844 233.019531 149.082031 Z M 233.019531 149.082031 " fill-opacity="1" fill-rule="nonzero"/></g></g></g></g></g><g clip-path="url(#c14c3bb45d)"><g mask="url(#6988646aa7)"><g transform="matrix(1, 0, 0, 1, 104, 74)"><g clip-path="url(#c31db3c38b)"><g clip-path="url(#09af6a6790)"><path fill="#3de2ff" d="M 233.464844 85.089844 C 233.464844 107.453125 224.757812 128.480469 208.941406 144.296875 L 143.949219 209.289062 C 127.625 225.613281 106.183594 233.773438 84.742188 233.773438 C 63.300781 233.773438 41.855469 225.613281 25.535156 209.289062 C 9.71875 193.472656 1.007812 172.445312 1.007812 150.082031 C 1.007812 127.714844 9.71875 106.6875 25.535156 90.875 L 90.527344 25.878906 C 123.171875 -6.765625 176.296875 -6.765625 208.941406 25.878906 C 224.757812 41.695312 233.464844 62.722656 233.464844 85.089844 Z M 233.464844 85.089844 " fill-opacity="1" fill-rule="nonzero"/></g></g></g></g></g></svg>