<svg xmlns="http://www.w3.org/2000/svg" xmlns:xlink="http://www.w3.org/1999/xlink" width="1600" zoomAndPan="magnify" viewBox="0 0 1200 374.999991" height="500" preserveAspectRatio="xMidYMid meet" version="1.0"><defs><filter x="0%" y="0%" width="100%" height="100%" id="bec25f385d"><feColorMatrix values="0 0 0 0 1 0 0 0 0 1 0 0 0 0 1 0 0 0 1 0" color-interpolation-filters="sRGB"/></filter><g/><clipPath id="0c98d5df03"><path d="M 96.085938 81 L 325 81 L 325 309.933594 L 96.085938 309.933594 Z M 96.085938 81 " clip-rule="nonzero"/></clipPath><mask id="5e467e8f14"><g filter="url(#bec25f385d)"><rect x="-120" width="1440" fill="#000000" y="-37.499999" height="449.999989" fill-opacity="0.7"/></g></mask><clipPath id="ef8d29ea9e"><path d="M 0.0859375 0.601562 L 228.960938 0.601562 L 228.960938 228.933594 L 0.0859375 228.933594 Z M 0.0859375 0.601562 " clip-rule="nonzero"/></clipPath><clipPath id="c76654161e"><rect x="0" width="229" y="0" height="229"/></clipPath><clipPath id="38a71fb51b"><path d="M 159 80 L 388.585938 80 L 388.585938 309.933594 L 159 309.933594 Z M 159 80 " clip-rule="nonzero"/></clipPath><mask id="14b692612b"><g filter="url(#bec25f385d)"><rect x="-120" width="1440" fill="#000000" y="-37.499999" height="449.999989" fill-opacity="0.7"/></g></mask><clipPath id="211486d17b"><path d="M 1 1 L 229.585938 1 L 229.585938 229.933594 L 1 229.933594 Z M 1 1 " clip-rule="nonzero"/></clipPath><clipPath id="2ff3b74a40"><rect x="0" width="230" y="0" height="230"/></clipPath><clipPath id="0e5f7c014c"><rect x="0" width="662" y="0" height="255"/></clipPath></defs><g clip-path="url(#0c98d5df03)"><g mask="url(#5e467e8f14)"><g transform="matrix(1, 0, 0, 1, 96, 81)"><g clip-path="url(#c76654161e)"><g clip-path="url(#ef8d29ea9e)"><path fill="#085fce" d="M 228.445312 146.75 C 228.445312 168.71875 219.890625 189.375 204.355469 204.90625 C 188.320312 220.941406 167.257812 228.960938 146.195312 228.960938 C 125.132812 228.960938 104.074219 220.941406 88.039062 204.90625 L 24.199219 141.066406 C 8.664062 125.535156 0.109375 104.878906 0.109375 82.910156 C 0.109375 60.941406 8.664062 40.289062 24.199219 24.753906 C 56.265625 -7.316406 108.445312 -7.316406 140.515625 24.753906 L 204.355469 88.59375 C 219.890625 104.125 228.445312 124.78125 228.445312 146.75 Z M 228.445312 146.75 " fill-opacity="1" fill-rule="nonzero"/></g></g></g></g></g><g clip-path="url(#38a71fb51b)"><g mask="url(#14b692612b)"><g transform="matrix(1, 0, 0, 1, 159, 80)"><g clip-path="url(#2ff3b74a40)"><g clip-path="url(#211486d17b)"><path fill="#3de2ff" d="M 229.730469 83.910156 C 229.730469 105.878906 221.175781 126.535156 205.640625 142.066406 L 141.800781 205.90625 C 125.765625 221.941406 104.703125 229.960938 83.640625 229.960938 C 62.582031 229.960938 41.519531 221.941406 25.484375 205.90625 C 9.949219 190.375 1.394531 169.71875 1.394531 147.75 C 1.394531 125.78125 9.949219 105.125 25.484375 89.59375 L 89.324219 25.753906 C 121.390625 -6.316406 173.570312 -6.316406 205.640625 25.753906 C 221.175781 41.285156 229.730469 61.941406 229.730469 83.910156 Z M 229.730469 83.910156 " fill-opacity="1" fill-rule="nonzero"/></g></g></g></g></g><g transform="matrix(1, 0, 0, 1, 435, 58)"><g clip-path="url(#0e5f7c014c)"><g fill="#ffffff" fill-opacity="1"><g transform="translate(0.339654, 200.243336)"><g><path d="M 14.25 -142.4375 L 59.015625 -142.4375 L 92.578125 -43.75 L 93.609375 -43.75 L 127.171875 -142.4375 L 171.9375 -142.4375 L 171.9375 0 L 141.421875 0 L 141.421875 -100.71875 L 140.40625 -100.71875 L 105.8125 0 L 80.375 0 L 45.78125 -100.71875 L 44.765625 -100.71875 L 44.765625 0 L 14.25 0 Z M 14.25 -142.4375 "/></g></g></g><g fill="#ffffff" fill-opacity="1"><g transform="translate(182.42843, 200.243336)"><g><path d="M 42.9375 0 L -1.015625 -107.84375 L 30.515625 -107.84375 L 56.96875 -37.640625 L 57.796875 -37.640625 L 83.421875 -107.84375 L 114.96875 -107.84375 L 55.953125 40.703125 L 26.453125 40.703125 Z M 42.9375 0 "/></g></g></g><g fill="#ffffff" fill-opacity="1"><g transform="translate(292.291752, 200.243336)"><g><path d="M 14.25 -142.4375 L 69.1875 -142.4375 C 79.082031 -142.4375 88.03125 -140.804688 96.03125 -137.546875 C 104.039062 -134.296875 110.894531 -129.617188 116.59375 -123.515625 C 122.289062 -117.410156 126.664062 -109.945312 129.71875 -101.125 C 132.769531 -92.3125 134.296875 -82.34375 134.296875 -71.21875 C 134.296875 -59.957031 132.769531 -49.914062 129.71875 -41.09375 C 126.664062 -32.28125 122.289062 -24.820312 116.59375 -18.71875 C 110.894531 -12.613281 104.039062 -7.96875 96.03125 -4.78125 C 88.03125 -1.59375 79.082031 0 69.1875 0 L 14.25 0 Z M 68.171875 -27.46875 C 73.054688 -27.46875 77.632812 -28.347656 81.90625 -30.109375 C 86.175781 -31.878906 89.9375 -34.59375 93.1875 -38.25 C 96.445312 -41.914062 99.023438 -46.492188 100.921875 -51.984375 C 102.828125 -57.484375 103.78125 -63.894531 103.78125 -71.21875 C 103.78125 -78.539062 102.828125 -84.945312 100.921875 -90.4375 C 99.023438 -95.9375 96.445312 -100.515625 93.1875 -104.171875 C 89.9375 -107.835938 86.175781 -110.550781 81.90625 -112.3125 C 77.632812 -114.082031 73.054688 -114.96875 68.171875 -114.96875 L 44.765625 -114.96875 L 44.765625 -27.46875 Z M 68.171875 -27.46875 "/></g></g></g><g fill="#ffffff" fill-opacity="1"><g transform="translate(430.638333, 200.243336)"><g><path d="M 60.03125 2.03125 C 51.882812 2.03125 44.554688 0.773438 38.046875 -1.734375 C 31.535156 -4.242188 25.972656 -7.867188 21.359375 -12.609375 C 16.753906 -17.359375 13.226562 -23.191406 10.78125 -30.109375 C 8.34375 -37.035156 7.125 -44.972656 7.125 -53.921875 C 7.125 -62.878906 8.34375 -70.816406 10.78125 -77.734375 C 13.226562 -84.648438 16.753906 -90.484375 21.359375 -95.234375 C 25.972656 -99.984375 31.535156 -103.609375 38.046875 -106.109375 C 44.554688 -108.617188 51.882812 -109.875 60.03125 -109.875 C 68.164062 -109.875 75.488281 -108.617188 82 -106.109375 C 88.507812 -103.609375 94.070312 -99.984375 98.6875 -95.234375 C 103.300781 -90.484375 106.828125 -84.648438 109.265625 -77.734375 C 111.710938 -70.816406 112.9375 -62.878906 112.9375 -53.921875 C 112.9375 -44.972656 111.710938 -37.035156 109.265625 -30.109375 C 106.828125 -23.191406 103.300781 -17.359375 98.6875 -12.609375 C 94.070312 -7.867188 88.507812 -4.242188 82 -1.734375 C 75.488281 0.773438 68.164062 2.03125 60.03125 2.03125 Z M 60.03125 -23.40625 C 63.28125 -23.40625 66.394531 -23.976562 69.375 -25.125 C 72.363281 -26.28125 74.976562 -28.113281 77.21875 -30.625 C 79.457031 -33.132812 81.222656 -36.320312 82.515625 -40.1875 C 83.804688 -44.050781 84.453125 -48.628906 84.453125 -53.921875 C 84.453125 -59.210938 83.804688 -63.789062 82.515625 -67.65625 C 81.222656 -71.519531 79.457031 -74.707031 77.21875 -77.21875 C 74.976562 -79.726562 72.363281 -81.5625 69.375 -82.71875 C 66.394531 -83.875 63.28125 -84.453125 60.03125 -84.453125 C 56.769531 -84.453125 53.644531 -83.875 50.65625 -82.71875 C 47.675781 -81.5625 45.066406 -79.726562 42.828125 -77.21875 C 40.585938 -74.707031 38.820312 -71.519531 37.53125 -67.65625 C 36.25 -63.789062 35.609375 -59.210938 35.609375 -53.921875 C 35.609375 -48.628906 36.25 -44.050781 37.53125 -40.1875 C 38.820312 -36.320312 40.585938 -33.132812 42.828125 -30.625 C 45.066406 -28.113281 47.675781 -26.28125 50.65625 -25.125 C 53.644531 -23.976562 56.769531 -23.40625 60.03125 -23.40625 Z M 60.03125 -23.40625 "/></g></g></g><g fill="#ffffff" fill-opacity="1"><g transform="translate(546.605212, 200.243336)"><g><path d="M 60.03125 2.03125 C 51.882812 2.03125 44.554688 0.773438 38.046875 -1.734375 C 31.535156 -4.242188 25.972656 -7.867188 21.359375 -12.609375 C 16.753906 -17.359375 13.226562 -23.191406 10.78125 -30.109375 C 8.34375 -37.035156 7.125 -44.972656 7.125 -53.921875 C 7.125 -62.878906 8.34375 -70.816406 10.78125 -77.734375 C 13.226562 -84.648438 16.753906 -90.484375 21.359375 -95.234375 C 25.972656 -99.984375 31.535156 -103.609375 38.046875 -106.109375 C 44.554688 -108.617188 51.882812 -109.875 60.03125 -109.875 C 67.625 -109.875 74.269531 -108.820312 79.96875 -106.71875 C 85.664062 -104.625 90.515625 -101.773438 94.515625 -98.171875 C 98.515625 -94.578125 101.769531 -90.441406 104.28125 -85.765625 C 106.789062 -81.085938 108.65625 -76.238281 109.875 -71.21875 L 81.390625 -71.21875 C 79.359375 -75.289062 76.710938 -78.515625 73.453125 -80.890625 C 70.203125 -83.265625 65.726562 -84.453125 60.03125 -84.453125 C 52.84375 -84.453125 46.972656 -81.90625 42.421875 -76.8125 C 37.878906 -71.726562 35.609375 -64.097656 35.609375 -53.921875 C 35.609375 -43.742188 37.878906 -36.113281 42.421875 -31.03125 C 46.972656 -25.945312 52.84375 -23.40625 60.03125 -23.40625 C 65.726562 -23.40625 70.203125 -24.585938 73.453125 -26.953125 C 76.710938 -29.328125 79.359375 -32.550781 81.390625 -36.625 L 109.875 -36.625 C 108.65625 -31.46875 106.789062 -26.582031 104.28125 -21.96875 C 101.769531 -17.363281 98.515625 -13.257812 94.515625 -9.65625 C 90.515625 -6.0625 85.664062 -3.210938 79.96875 -1.109375 C 74.269531 0.984375 67.625 2.03125 60.03125 2.03125 Z M 60.03125 2.03125 "/></g></g></g></g></g></svg>